<?xml version="1.0" encoding="utf-8"?>
<svg viewBox="0 0 40 40" xmlns="http://www.w3.org/2000/svg">
  <path d="M 19.997 13.672 C 16.505 13.672 13.672 16.505 13.672 20 C 13.672 23.491 16.505 26.331 19.997 26.331 C 23.491 26.331 26.304 23.491 26.304 20 C 26.304 16.505 23.491 13.672 19.997 13.672 Z M 32.681 23.636 L 31.54 26.381 L 33.574 30.376 L 33.842 30.903 L 31.023 33.723 L 26.396 31.538 L 23.65 32.666 L 22.256 36.934 L 22.077 37.5 L 18.092 37.5 L 16.367 32.683 L 13.62 31.55 L 9.621 33.579 L 9.093 33.842 L 6.275 31.025 L 8.457 26.396 L 7.326 23.652 L 3.065 22.261 L 2.5 22.077 L 2.5 18.094 L 7.32 16.367 L 8.452 13.626 L 6.424 9.623 L 6.157 9.097 L 8.972 6.283 L 13.605 8.464 L 16.348 7.33 L 17.741 3.065 L 17.92 2.5 L 21.904 2.5 L 23.63 7.323 L 26.37 8.457 L 30.371 6.427 L 30.903 6.159 L 33.721 8.975 L 31.538 13.599 L 32.666 16.348 L 36.938 17.741 L 37.5 17.92 L 37.5 21.902 L 32.681 23.636 Z"/>
</svg>